<svg width="14" height="15" viewBox="0 0 14 15" fill="none" xmlns="http://www.w3.org/2000/svg">
<path fill-rule="evenodd" clip-rule="evenodd" d="M1.1528 0.833252H10.4288C10.8813 0.833252 11.2481 1.20007 11.2481 1.65257L11.2471 6.27579L12.8475 6.27582C13.2717 6.27582 13.6206 6.59821 13.6626 7.01135L13.6668 7.09512V9.71982C13.6668 10.1723 13.3 10.5391 12.8475 10.5391L8.52588 10.538L8.527 13.3354C8.527 13.7591 8.2054 14.1077 7.79283 14.1503L7.70918 14.1547L1.15428 14.1666C0.701795 14.1674 0.334317 13.8013 0.333496 13.3482V1.65255C0.333496 1.20007 0.70031 0.833252 1.1528 0.833252ZM10.4288 1.46817H6.01697V6.9712C6.01697 7.14653 5.87483 7.28866 5.69951 7.28866C5.54366 7.28866 5.41404 7.17636 5.38716 7.02827L5.38205 6.9712V5.84005H4.36222C4.2666 5.84005 4.18086 5.79778 4.12266 5.73091C4.06866 5.70339 4.03167 5.64726 4.03167 5.5825L4.03174 5.20847C4.0259 5.00834 4.00366 4.92836 3.91464 4.8411C3.80729 4.73588 3.62788 4.6782 3.36893 4.67618C3.27699 4.67547 3.20304 4.60036 3.20375 4.50842C3.20447 4.41648 3.27958 4.34252 3.37152 4.34324C3.7095 4.34587 3.97073 4.42985 4.1477 4.60332C4.29274 4.74549 4.34376 4.88157 4.3597 5.09989L4.36345 5.20513H5.38205V1.46817H1.1528C1.05097 1.46817 0.968417 1.55072 0.968417 1.65255V5.20513H1.79768C1.97301 5.20513 2.11514 5.34727 2.11514 5.52259C2.11514 5.67844 2.00284 5.80806 1.85474 5.83494L1.79768 5.84005H0.968417L0.968417 9.91262H2.8853L2.88562 9.69699L2.88594 9.48136L2.88513 9.44312C2.87928 9.24299 2.85705 9.16301 2.76802 9.07575C2.66067 8.97053 2.48127 8.91285 2.22231 8.91083C2.13037 8.91012 2.05642 8.83501 2.05713 8.74307C2.05785 8.65113 2.13296 8.57718 2.2249 8.57789C2.56289 8.58052 2.82411 8.66451 3.00109 8.83797C3.14612 8.98014 3.19715 9.11622 3.21308 9.33454L3.21941 9.52615L3.21844 9.91262H3.22238V10.2142C3.22238 10.3983 3.07315 10.5475 2.88905 10.5475H0.968417V13.3476C0.968601 13.4494 1.0513 13.5318 1.15313 13.5317L7.70803 13.5198C7.80973 13.5196 7.89207 13.4371 7.89207 13.3355L7.89164 10.5475H5.70175C5.51765 10.5475 5.36842 10.3983 5.36842 10.2142V9.93017L5.36721 9.58768L5.369 9.4334C5.37713 9.15498 5.4201 9.00045 5.58585 8.83797C5.76283 8.66451 6.02406 8.58052 6.36204 8.57789C6.45398 8.57718 6.52909 8.65113 6.52981 8.74307C6.53052 8.83501 6.45657 8.91012 6.36463 8.91083C6.10568 8.91285 5.92627 8.97053 5.81892 9.07575C5.72989 9.16301 5.70766 9.24299 5.70181 9.44312L5.70187 9.91262H8.13414C8.15817 9.9068 8.18327 9.90372 8.20908 9.90373L12.8475 9.9042C12.9494 9.9042 13.0319 9.82165 13.0319 9.71982V7.09512C13.0319 6.99329 12.9494 6.91074 12.8475 6.91074L10.9303 6.91071C10.755 6.91071 10.6129 6.76857 10.6129 6.59323L10.6132 1.65255C10.6132 1.55072 10.5306 1.46817 10.4288 1.46817Z" fill="#1A2258" stroke="#1A2258" stroke-width="0.4"/>
</svg>
